<svg xmlns="http://www.w3.org/2000/svg" width="29.998" height="30.002" viewBox="0 0 29.998 30.002">
  <path d="M14418,23528.871h-30v-9.861h4.955a4.651,4.651,0,0,0,2.031-.418,3.171,3.171,0,0,0,1.329-1.135,3,3,0,0,0,.473-1.652,2.793,2.793,0,0,0-.856-2.08,3.1,3.1,0,0,0-.81-.561,3.029,3.029,0,0,0,.567-.412,2.412,2.412,0,0,0,.756-1.814,2.73,2.73,0,0,0-.407-1.469,2.869,2.869,0,0,0-1.17-1.033,3.861,3.861,0,0,0-1.807-.385H14388v-9.182h30v16.92a2.778,2.778,0,0,0-.855-2.064,2.99,2.99,0,0,0-.81-.561,2.691,2.691,0,0,0,.567-.412,2.4,2.4,0,0,0,.762-1.814,2.682,2.682,0,0,0-.414-1.469,2.87,2.87,0,0,0-1.163-1.033,3.861,3.861,0,0,0-1.807-.385h-5.066v10.959h4.96a4.636,4.636,0,0,0,2.025-.418,3.171,3.171,0,0,0,1.329-1.135,2.994,2.994,0,0,0,.472-1.652v13.066Zm-15.341-18.629a1.508,1.508,0,0,1,1.021.342,1.184,1.184,0,0,1,.384.928,1.429,1.429,0,0,1-.089.5,1.935,1.935,0,0,1-.295.514,4.98,4.98,0,0,1-.525.6l-4.37,4.375v1.506h8.262v-2.3h-3.95l1.989-1.895a8.261,8.261,0,0,0,1-1.129,3.748,3.748,0,0,0,.55-1.086,3.922,3.922,0,0,0,.171-1.193,3.59,3.59,0,0,0-.479-1.877,3.151,3.151,0,0,0-1.358-1.223,4.735,4.735,0,0,0-2.1-.432,5.12,5.12,0,0,0-2.421.555,4.539,4.539,0,0,0-1.742,1.648l1.854,1.611a3.942,3.942,0,0,1,1-1.109A1.888,1.888,0,0,1,14402.658,23510.242Zm11.119,6.713h-1.795v-2.633h1.795a1.7,1.7,0,0,1,.762.164,1.168,1.168,0,0,1,.5.461,1.4,1.4,0,0,1,.171.691,1.257,1.257,0,0,1-.384.945A1.454,1.454,0,0,1,14413.777,23516.955Zm-21.211,0h-1.8v-2.633h1.8a1.691,1.691,0,0,1,.762.164,1.183,1.183,0,0,1,.49.461,1.345,1.345,0,0,1,.178.691,1.22,1.22,0,0,1-.391.945A1.427,1.427,0,0,1,14392.566,23516.955Zm21.04-4.617h-1.624v-2.232h1.624a1.431,1.431,0,0,1,.909.271,1.008,1.008,0,0,1,.354.846.985.985,0,0,1-.354.838A1.4,1.4,0,0,1,14413.606,23512.338Zm-21.217,0h-1.624v-2.232h1.624a1.431,1.431,0,0,1,.909.271,1.008,1.008,0,0,1,.354.846.985.985,0,0,1-.354.838A1.4,1.4,0,0,1,14392.39,23512.338Z" transform="translate(-14388.001 -23498.869)" fill="#ffe800"/>
</svg>