<svg xmlns="http://www.w3.org/2000/svg" width="60" height="60" viewBox="0 0 60 60">
  <title>Placeholder Image</title>
  <rect id="PlaceholderImage" width="60" height="60" fill="#efefef"/>
  <path d="M46.295 20.229a.961.961,0,0,0-.034-.239c-.312-2.08-1.868-2.906-3.907-2.928q-3.2-.034-6.4-.049c-5.458-.026-10.917-.023-16.374.106-2.032.048-4.5-.168-5.365,2.132a6.434,6.434,0,0,0-.208,2.327q.018,4.544.036,9.089c.011,2.767-.01,5.535.033,8.3a3.546,3.546,0,0,0,1.219,2.958,5.019,5.019,0,0,0,3.1.755c1.47.07,2.939.13,4.411.143,3.024.028,6.047-.057,9.071-.064,2.869-.007,5.765.12,8.629-.058,2.1-.13,4.944.043,5.8-2.356a6.509,6.509,0,0,0,.184-2.295Q46.393 29.141,46.295 20.229Zm-30.47.158c.193-1.636,1.883-1.4,3.122-1.437s2.489-.056,3.733-.075q4.081-.06,8.163-.057,3.762,0,7.523.024c1.492.01,5.9-.665,6.108,1.386q.062,5.7.125,11.39-1.457-1.357-2.928-2.7c-.922-.837-1.924-1.969-3.258-2.056-1.317-.085-2.379.842-3.333,1.625a28.767,28.767,0,0,0-2.975,2.82,19.239,19.239,0,0,0-6.328-4.525c-2.253-.885-3.5.5-5.019,1.958l-4.881,4.7-.032-8.033A42.647,42.647,0,0,1,15.825 20.387Zm28.858,18.846c-.22,2.142-4.506,1.7-6.141,1.713-2.637.013-5.273-.009-7.91,0-2.608.014-5.217.083-7.826.06-1.144-.01-2.287-.046-3.43-.1-1.291-.058-3.257.25-3.476-1.465a21.81,21.81,0,0,1-.05-3.463c.023-.019.047-.033.069-.055l4.647-4.477c.828-.8,1.629-1.733,2.535-2.442,1.323-1.037,2.23-.525,3.46.26,3.4,2.171,6.1,5.3,8.762,8.287.78.875,2.064-.413,1.287-1.284-1.029-1.153-2.11-2.423-3.258-3.664,1.364-1.584,3.935-4.387,5.48-3.69a13.172,13.172,0,0,1,2.834,2.457q1.49,1.368,2.962,2.755A43.168,43.168,0,0,1,44.683 39.233Z" fill="#004ea8" stroke="rgba(0,0,0,0)" stroke-width="1"/>
  <circle cx="30" cy="24" r="2.5" fill="none" stroke="#004ea8" stroke-width="1.75"/>
</svg>