<svg version="1.1" id="bop-design-logo" xmlns="http://www.w3.org/2000/svg" x="0px" y="0px" viewBox="0 0 177.11 50.6" xml:space="preserve">
<style type="text/css">
	.st0{fill:#0C0F0F;}
	.st1{fill:#0C0F0F;}
	.st2{fill:#FFF501;}
	.st3{fill:#FFF;}
</style>
<g>
	<path class="st0" d="M169.06,4.24c0-2.22,1.8-4.01,4.04-4.01c2.23,0,4.01,1.8,4.01,4.01c0,2.24-1.79,4.03-4.01,4.03
		C170.86,8.27,169.06,6.47,169.06,4.24 M176.4,4.24c0-1.82-1.48-3.31-3.31-3.31c-1.84,0-3.33,1.49-3.33,3.31
		c0,1.84,1.49,3.33,3.33,3.33C174.92,7.57,176.4,6.08,176.4,4.24 M172.24,4.5v2.04h-0.74V1.82h1.53c0.87,0,1.77,0.24,1.77,1.31
		c0,0.55-0.33,0.97-0.96,1.1v0.02c0.65,0.13,0.73,0.42,0.8,0.93c0.06,0.45,0.12,0.94,0.28,1.37h-0.94
		c-0.05-0.27-0.13-0.57-0.16-0.85c-0.05-0.41-0.05-0.78-0.27-1c-0.18-0.19-0.43-0.17-0.68-0.19H172.24z M173.02,3.77
		c0.7-0.02,0.86-0.31,0.86-0.67c0-0.35-0.16-0.53-0.75-0.53h-0.89v1.21H173.02z"/>
	<rect class="st1" width="165.8" height="50.6"/>
	<path class="st2" d="M17.5,34.31V15.48h6.13c2.61,0,3.49,0.89,4.2,1.93c0.65,1.02,0.76,2.14,0.76,2.5c0,2.35-0.81,3.91-3.23,4.46
		v0.13c2.68,0.31,3.86,1.93,3.86,4.51c0,4.82-3.52,5.29-5.66,5.29H17.5z M19.9,23.41h3.49c1.88-0.03,2.79-1.17,2.79-3
		c0-1.56-0.89-2.84-2.89-2.84H19.9V23.41z M19.9,32.22h3.39c2.56,0,3.47-1.82,3.47-3.21c0-3-1.85-3.52-4.3-3.52H19.9V32.22z"/>
	<path class="st2" d="M33.04,27.42v-6.18c0-3.75,1.93-6.15,5.92-6.15c3.99,0,5.92,2.4,5.92,6.15v6.18c0,5.21-1.93,7.27-5.92,7.27
		C34.97,34.7,33.04,32.64,33.04,27.42 M42.43,27.53v-6.36c0-3.94-2.71-4.07-3.47-4.07c-0.76,0-3.47,0.13-3.47,4.07v6.36
		c0,4.12,1.2,5.16,3.47,5.16C41.23,32.69,42.43,31.65,42.43,27.53"/>
	<path class="st2" d="M49.13,34.3V15.48h5.58c2.53,0,5.24,0.94,5.24,5.37c0,4.28-3.34,5.16-5.27,5.16h-3.15v8.29H49.13z
		 M51.53,23.93h2.63c0.99,0,3.34-0.26,3.34-3.21c0-2.87-2.14-3.15-2.66-3.15h-3.31V23.93z"/>
	<path class="st3" d="M69.15,15.48h5.79c2.4,0,4.12,0.86,5.06,2.87c0.76,1.59,0.83,5.34,0.83,5.94c0,4.02-0.36,6.34-1.15,7.59
		c-1.02,1.62-2.92,2.42-6.21,2.42h-4.33V15.48z M71.55,32.22h2.27c3.34,0,4.56-1.25,4.56-5.63v-3.81c0-3.81-1.17-5.21-3.68-5.21
		h-3.15V32.22z"/>
	<polygon class="st3" points="84.85,34.31 84.85,15.48 94.55,15.48 94.55,17.57 87.25,17.57 87.25,23.62 94.02,23.62 94.02,25.7
		87.25,25.7 87.25,32.22 94.7,32.22 94.7,34.31"/>
	<path class="st3" d="M100.13,28.7v0.55c0,2.56,1.62,3.36,3.15,3.36c1.9,0,3.36-0.81,3.36-3.05c0-4.17-8.45-3.7-8.45-9.36
		c0-3.34,2.37-5.11,5.53-5.11c3.44,0,5.37,1.67,5.21,5.5h-2.5c0.03-2.06-0.63-3.41-2.89-3.41c-1.43,0-2.89,0.73-2.89,2.76
		c0,4.15,8.45,3.55,8.45,9.51c0,3.96-2.74,5.24-5.84,5.24c-5.55,0.05-5.55-4.2-5.5-6H100.13z"/>
	<rect x="112.98" y="15.48" class="st3" width="2.4" height="18.82"/>
	<path class="st3" d="M128.78,20.51c0-2.22-0.91-3.42-3.34-3.42c-0.76,0-3.47,0.13-3.47,4.07v6.36c0,4.12,1.2,5.16,3.47,5.16
		c1.72,0,2.87-0.47,3.36-0.83v-5.63h-3.47v-2.09h5.87v9.15c-1.54,0.83-3.34,1.41-5.76,1.41c-3.99,0-5.92-2.06-5.92-7.27v-6.18
		c0-3.75,1.93-6.15,5.92-6.15c4.07,0,6,1.49,5.84,5.42H128.78z"/>
	<polygon class="st3" points="148.46,15.48 148.46,34.31 145.18,34.31 137.74,17.99 137.69,17.99 137.69,34.31 135.56,34.31
		135.56,15.48 138.94,15.48 146.27,31.59 146.32,31.59 146.32,15.48"/>
</g>
</svg>