<svg id="brand" xmlns="http://www.w3.org/2000/svg" width="45.969" height="45.969" viewBox="0 0 45.969 45.969">
  <defs>
    <linearGradient id="linear-gradient" x2="1" y2="0.618">
      <stop offset="0" stop-color="#b4fa93"/>
      <stop offset="1" stop-color="#fb1163"/>
    </linearGradient>
  </defs>
  <path d="M22.984,45.969a22.877,22.877,0,0,1-12.851-3.925A23.052,23.052,0,0,1,1.806,31.931a22.954,22.954,0,0,1,2.119-21.8A23.052,23.052,0,0,1,14.038,1.806a22.954,22.954,0,0,1,21.8,2.119,23.052,23.052,0,0,1,8.327,10.112,22.84,22.84,0,0,1,1.806,8.947,23.1,23.1,0,0,1-.619,5.322,22.863,22.863,0,0,1-1.763,4.88,11.107,11.107,0,0,0-1.957-4.861,11.3,11.3,0,0,0-3.879-3.4A14.892,14.892,0,1,0,8.093,22.984,14.911,14.911,0,0,0,21.783,37.828a11.222,11.222,0,0,0,6.856,7.44A23.076,23.076,0,0,1,22.984,45.969Z" fill="url(#linear-gradient)"/>
  <ellipse cx="7.5" cy="7" rx="7.5" ry="7" transform="translate(25 28)" fill="url(#linear-gradient)"/>
</svg>